<svg width="22" height="19" viewBox="0 0 22 19" fill="none" xmlns="http://www.w3.org/2000/svg">
<path fill-rule="evenodd" clip-rule="evenodd" d="M12.3476 0.583892C12.0569 0.904973 11.2334 1.39135 10.5178 1.66487L9.21622 2.16195V4.20259V6.24324H15.3108H21.4054V4.17049V2.09773L19.8068 1.63305C18.9277 1.37738 17.9704 0.905568 17.6797 0.584189C17.2477 0.10673 16.7607 0 15.0135 0C13.2666 0 12.7793 0.10673 12.3476 0.583892ZM2.30405 3.47689C1.69103 3.89816 1.18919 4.42527 1.18919 4.64824C1.18919 4.87151 0.921622 5.05405 0.594595 5.05405C0.267568 5.05405 0 5.18784 0 5.35135C0 5.51486 0.267568 5.64865 0.594595 5.64865C0.921622 5.64865 1.18919 5.78243 1.18919 5.94595C1.18919 6.10946 0.921622 6.24324 0.594595 6.24324C0.267568 6.24324 0 6.37703 0 6.54054C0 6.71535 1.00932 6.83397 2.4527 6.82832C4.01946 6.82238 5.0933 6.67641 5.42568 6.424C5.81305 6.12997 5.94595 5.60049 5.94595 4.35243V2.67568L4.68243 2.69351C3.83365 2.70541 3.05324 2.96257 2.30405 3.47689ZM6.54054 4.60811C6.54054 5.599 6.65619 5.94595 6.98649 5.94595C7.31678 5.94595 7.43243 5.599 7.43243 4.60811C7.43243 3.61722 7.31678 3.27027 6.98649 3.27027C6.65619 3.27027 6.54054 3.61722 6.54054 4.60811ZM8.02703 4.60811C8.02703 5.34392 8.16081 5.94595 8.32432 5.94595C8.48784 5.94595 8.62162 5.34392 8.62162 4.60811C8.62162 3.8723 8.48784 3.27027 8.32432 3.27027C8.16081 3.27027 8.02703 3.8723 8.02703 4.60811ZM3.13024 4.2677C2.78359 4.5213 2.651 4.85784 2.77259 5.17505C2.88705 5.47354 2.84632 5.60524 2.67241 5.49792C2.51068 5.39803 2.37838 5.15038 2.37838 4.94732C2.37838 4.74427 2.53892 4.41784 2.73514 4.22162C2.93135 4.02541 3.22449 3.86486 3.38651 3.86486C3.54854 3.86486 3.43319 4.04622 3.13024 4.2677ZM9.52392 7.41281C9.35476 7.72914 9.21622 8.30292 9.21622 8.68792C9.21622 9.07292 8.94865 9.91249 8.62162 10.5541C8.29459 11.1956 8.02703 11.9582 8.02703 12.2489C8.02703 12.5397 7.75946 13.4812 7.43273 14.3413C7.1057 15.2017 6.83814 16.0056 6.83814 16.1284C6.83784 16.2512 7.30132 16.3514 7.86797 16.3514C8.60646 16.3514 8.99146 16.1765 9.2287 15.7336C9.42224 15.3718 9.73441 15.1871 9.98235 15.2876C10.2151 15.3822 10.5823 15.5314 10.7984 15.6197C11.0285 15.7134 11.3365 15.4609 11.5417 15.0111C11.7343 14.5881 11.8919 14.1362 11.8919 14.0066C11.8919 13.8772 11.5729 13.6257 11.1828 13.4479C10.5193 13.1456 10.4904 13.0335 10.7345 11.6909C10.9275 10.6281 11.264 10.0064 12.0337 9.29054C12.9494 8.43878 13.2699 8.32432 14.7403 8.32432C15.9702 8.32432 16.6439 8.492 17.3054 8.96322C18.1449 9.56108 18.1931 9.69843 18.0572 11.1115C17.966 12.0622 18.0528 12.8435 18.2924 13.2226C18.5014 13.5535 18.7642 14.3931 18.876 15.0878C19.0707 16.2987 19.1234 16.3514 20.1342 16.3514H21.189L20.9618 14.9392C20.837 14.1624 20.7186 12.4568 20.6984 11.1486C20.6785 9.84054 20.7731 8.33562 20.9086 7.80405L21.1554 6.83784H15.4936C10.2003 6.83784 9.8117 6.8753 9.52392 7.41281ZM11.2408 8.25C11.1855 8.536 10.9435 8.77027 10.7027 8.77027C10.4619 8.77027 10.2199 8.536 10.1646 8.25C10.0944 7.88492 10.255 7.72973 10.7027 7.72973C11.1504 7.72973 11.311 7.88492 11.2408 8.25ZM19.8624 8.25C19.8071 8.536 19.5651 8.77027 19.3243 8.77027C19.0835 8.77027 18.8415 8.536 18.7862 8.25C18.7161 7.88492 18.8766 7.72973 19.3243 7.72973C19.7721 7.72973 19.9326 7.88492 19.8624 8.25ZM8.02287 9.07262C7.81684 9.32057 7.00551 9.94043 6.21946 10.4497C5.43341 10.959 4.71276 11.5776 4.61822 11.8244C4.52338 12.0712 4.65805 12.5965 4.917 12.9919C5.28149 13.5478 5.60257 13.6899 6.336 13.6189C7.18122 13.5368 7.29449 13.4144 7.3813 12.4865C7.43511 11.9142 7.65005 11.2453 7.85965 11C8.06895 10.7547 8.38587 10.1194 8.56395 9.58784C8.74232 9.05627 8.77741 8.62162 8.64243 8.62162C8.50746 8.62162 8.22859 8.82468 8.02287 9.07262ZM16.0264 9.88514C15.8361 10.2529 15.4675 10.7978 15.2074 11.0957C14.8637 11.4891 14.729 12.2867 14.715 14.0084L14.6957 16.3796L15.7466 16.2913C16.7854 16.2036 16.7994 16.184 16.9825 14.5676C17.0845 13.6682 17.2638 12.598 17.3806 12.1892C17.4974 11.7804 17.6678 11.124 17.7591 10.7306C17.8726 10.2407 17.7528 9.8893 17.3785 9.61578C17.0782 9.39608 16.7289 9.21622 16.6023 9.21622C16.4759 9.21622 16.2167 9.51738 16.0264 9.88514ZM6.48792 12.2882C6.54351 12.5748 6.39427 12.7838 6.13384 12.7838C5.88619 12.7838 5.60108 12.65 5.5 12.4865C5.39892 12.323 5.40338 12.0483 5.50981 11.8761C5.61595 11.704 5.85824 11.6148 6.04762 11.6778C6.237 11.7409 6.435 12.0156 6.48792 12.2882ZM9.81081 12.1892C9.81081 12.5162 9.61816 12.7838 9.38241 12.7838C9.14665 12.7838 8.87135 12.65 8.77027 12.4865C8.66919 12.323 8.66919 12.0554 8.77027 11.8919C8.87135 11.7284 9.14665 11.5946 9.38241 11.5946C9.61816 11.5946 9.81081 11.8622 9.81081 12.1892ZM16.5 12.21C16.5 12.4392 16.2657 12.672 15.9797 12.7273C15.6833 12.7844 15.4595 12.6473 15.4595 12.4092C15.4595 12.1791 15.5513 11.899 15.664 11.7866C15.7764 11.6743 16.0104 11.6297 16.1843 11.6876C16.3579 11.7453 16.5 11.9805 16.5 12.21ZM19.7863 11.9178C19.896 12.0955 19.8372 12.3899 19.6552 12.5718C19.4123 12.8147 19.2363 12.8147 18.9934 12.5718C18.8115 12.3899 18.7526 12.0955 18.8623 11.9178C18.9723 11.74 19.1801 11.5946 19.3243 11.5946C19.4685 11.5946 19.6763 11.74 19.7863 11.9178ZM12.0477 15.1461C11.7569 15.7915 11.5985 16.5274 11.696 16.7812C11.7935 17.0354 12.0718 17.2432 12.3146 17.2432C12.5572 17.2432 13.0288 16.6266 13.362 15.873C13.6953 15.1196 13.8945 14.3838 13.8044 14.2379C13.7143 14.0922 13.4013 13.973 13.1087 13.973C12.7769 13.973 12.3777 14.4145 12.0477 15.1461ZM6.27327 16.8865C6.09311 16.9465 5.94595 17.3188 5.94595 17.7139C5.94595 18.3872 6.0497 18.4324 7.5903 18.4324C8.80922 18.4324 9.28103 18.3117 9.41362 17.9666C9.51203 17.7103 9.4487 17.3568 9.273 17.1811C9.0973 17.0054 8.42422 16.8428 7.777 16.8196C7.13008 16.7964 6.45343 16.8264 6.27327 16.8865ZM14.9392 16.8874C14.1338 16.9676 13.973 17.1068 13.973 17.7228C13.973 18.4348 14.0357 18.4589 15.6824 18.373C17.1416 18.2969 17.3919 18.1999 17.3919 17.7106C17.3919 17.3434 17.1246 17.0753 16.6486 16.9644C16.2399 16.8692 15.4708 16.8345 14.9392 16.8874ZM18.8385 17.1766C18.6292 17.3862 18.5332 17.7546 18.6254 17.9951C18.7446 18.3052 19.2598 18.4324 20.3967 18.4324C21.9087 18.4324 22 18.3902 22 17.6892C22 17.2804 21.8329 16.9355 21.6284 16.9231C21.4241 16.9106 20.7983 16.8767 20.2382 16.8481C19.6781 16.8193 19.0481 16.9674 18.8385 17.1766Z" fill="currentColor"/>
</svg>
