<svg width="18" height="20" viewBox="0 0 18 20" xmlns="http://www.w3.org/2000/svg">
<path fill-rule="evenodd" clip-rule="evenodd" d="M8.19081 0.421233C7.76123 0.648158 7.2069 1.11861 6.95911 1.46666C6.71111 1.81493 6.40393 2.39906 6.27642 2.7652L6.04439 3.43065L5.64972 2.82779C5.43259 2.49613 4.94319 2.05739 4.56235 1.85239C4.18131 1.64761 3.55311 1.47986 3.1661 1.47986C2.7791 1.47986 2.10705 1.6623 1.67257 1.88539C1.23831 2.10827 0.726129 2.5634 0.534754 2.89655C0.34338 3.2297 0.121351 3.80872 0.0413098 4.18359C-0.0602316 4.65809 0.0232154 5.15345 0.316132 5.81549C0.605855 6.47029 0.996481 6.91563 1.57124 7.24644C2.37953 7.71157 2.39358 7.73903 2.01679 8.11582C1.66917 8.46344 1.62787 8.90835 1.62787 12.3035C1.62787 15.7133 1.66768 16.1382 2.01722 16.4546C2.2831 16.6951 2.7891 16.8069 3.61378 16.8069C4.27774 16.8069 4.82099 16.8531 4.82099 16.9095C4.82099 16.9661 4.43782 17.6384 3.96949 18.4034C3.50117 19.1685 3.11799 19.8408 3.11799 19.8974C3.11799 19.9538 3.44987 20 3.85539 20C4.50019 20 4.73074 19.8333 5.69485 18.6695C6.3009 17.9379 6.85608 17.3148 6.92867 17.2852C7.00105 17.2554 7.53835 17.8508 8.12269 18.6078C9.09042 19.8621 9.25582 19.9851 9.98322 19.9921C10.4224 19.9966 10.7815 19.9538 10.7815 19.8974C10.7815 19.8408 10.3983 19.1685 9.93 18.4034C9.46167 17.6384 9.0785 16.9661 9.0785 16.9095C9.0785 16.8531 9.79312 16.8069 10.6668 16.8069C12.0266 16.8069 12.3174 16.7398 12.6891 16.3409C13.091 15.9096 13.1231 15.6041 13.1231 12.2271C13.1231 8.68888 13.1082 8.56499 12.6305 8.11603C12.3595 7.86143 11.9044 7.65282 11.6194 7.65218C11.1479 7.65111 11.1717 7.60769 11.8829 7.17321C12.3131 6.91031 12.8547 6.45241 13.0865 6.15566C13.3181 5.8587 13.6166 5.2122 13.7494 4.71876C13.9297 4.04948 13.9297 3.5935 13.7494 2.92422C13.6166 2.43077 13.3181 1.78427 13.0865 1.48731C12.8547 1.19056 12.3131 0.73267 11.8829 0.469769C11.3392 0.137471 10.7764 -0.00558141 10.0364 0.000166218C9.40845 0.00506235 8.65168 0.177704 8.19081 0.421233ZM11.3686 1.90561C11.4003 1.90561 11.6162 2.21684 11.8482 2.59746C12.0802 2.97808 12.2701 3.52878 12.2701 3.82149C12.2701 4.11419 12.0824 4.66128 11.8531 5.03743C11.5904 5.46808 11.1774 5.78973 10.7364 5.90703C10.3515 6.00942 9.74905 6.01495 9.39781 5.91895C9.04657 5.82315 8.53311 5.48617 8.25701 5.17005C7.84467 4.69811 7.77336 4.42882 7.85915 3.66737C7.91663 3.15732 8.13503 2.55062 8.34408 2.31944C8.55333 2.08826 9.01974 1.82046 9.38057 1.72446C9.74118 1.62845 10.3232 1.62973 10.6736 1.72765C11.0242 1.82557 11.3369 1.90561 11.3686 1.90561ZM4.18237 3.60861C4.41653 3.84278 4.60812 4.2632 4.60812 4.54292C4.60812 4.82264 4.43228 5.26883 4.21728 5.53428C3.94054 5.87595 3.61463 6.01091 3.10139 5.99643C2.63179 5.98302 2.24435 5.81293 2.0021 5.51363C1.79625 5.25946 1.62787 4.82264 1.62787 4.54292C1.62787 4.2632 1.81946 3.84278 2.05362 3.60861C2.29012 3.37211 2.76313 3.18286 3.11799 3.18286C3.47286 3.18286 3.94587 3.37211 4.18237 3.60861ZM7.10365 6.37514C7.36379 6.69445 7.89065 7.11062 8.27447 7.29966C8.95886 7.63706 8.92544 7.64366 6.52783 7.64835L4.0836 7.65324L4.86336 7.1234C5.32636 6.80877 5.75616 6.28105 5.92113 5.82507C6.16019 5.16367 6.22895 5.10811 6.41479 5.4255C6.53336 5.62837 6.84331 6.05561 7.10365 6.37514ZM15.6297 8.77978L13.7724 9.88843L13.7707 12.2301L13.7688 14.5717L15.6346 15.6893C16.6607 16.3041 17.5692 16.8069 17.6533 16.8069C17.7376 16.8069 17.8064 14.7473 17.8064 12.2301C17.8064 9.71281 17.7344 7.65729 17.6467 7.66218C17.559 7.66708 16.6513 8.1701 15.6297 8.77978Z" fill="currentColor"/>
</svg>
