<svg width="22" height="21" viewBox="0 0 22 21" fill="none" xmlns="http://www.w3.org/2000/svg">
<path fill-rule="evenodd" clip-rule="evenodd" d="M9.30379 2.28319C5.31151 3.98159 3.92246 4.71712 3.77181 5.21321C3.66128 5.57747 3.35041 6.12641 3.08126 6.43272C2.81212 6.73903 2.34008 6.98994 2.03239 6.98994C1.68171 6.98994 1.19661 7.55384 0.731255 8.50239C0.179585 9.62669 -0.0080204 10.5459 0.000261014 12.0845C0.00822391 13.5457 0.230866 14.649 0.758328 15.8379C1.19661 16.8263 2.0859 18.0327 2.91181 18.7593C3.68549 19.4401 4.98089 20.2228 5.79088 20.4985C6.60055 20.7742 8.03514 21 8.9789 21C10.0217 21 11.3111 20.7348 12.2666 20.324C13.2699 19.8926 13.8385 19.4519 13.8385 19.1058C13.8385 18.8077 14.1704 18.2521 14.5755 17.8713C14.981 17.4905 15.5426 17.1791 15.8232 17.1791C16.1038 17.1791 16.5236 16.7492 16.7561 16.2238C17.0663 15.523 17.3954 15.2686 17.9907 15.2686C18.5286 15.2686 19.2647 14.7974 20.1751 13.8702C21.2032 12.8229 21.4966 12.3109 21.344 11.8301C21.2319 11.477 20.9105 11.1 20.6296 10.9924C20.3486 10.8844 19.7941 11.0092 19.3972 11.2694C18.7182 11.7139 18.7398 11.5932 19.7607 9.23855C20.3576 7.86143 20.8458 6.52792 20.8458 6.27511C20.8458 6.02197 20.5885 5.58224 20.2738 5.29759C19.7358 4.81074 19.4836 5.00114 16.0111 8.51194C13.7595 10.7886 12.2405 12.5882 12.1156 13.1273C12.0032 13.6135 11.6318 14.2905 11.2904 14.6318C10.9489 14.9731 10.288 15.3482 9.82138 15.4651C9.35507 15.5822 8.46928 15.5501 7.85327 15.3937C7.22866 15.2352 6.44065 14.7159 6.07276 14.2201C5.66857 13.6759 5.41216 12.8471 5.41216 12.0842C5.41216 11.1455 5.63799 10.602 6.32567 9.88461C6.82828 9.36018 7.62075 8.84754 8.08706 8.74533C8.597 8.63325 10.3797 7.1103 12.5628 4.92186C16.1455 1.33019 16.1834 1.2767 15.6021 0.634781C15.2785 0.277525 14.9285 -0.00840818 14.8243 0.000188906C14.7202 0.00846758 12.236 1.03566 9.30379 2.28319ZM12.4052 6.98994L10.5113 8.90327L11.3076 9.69929L12.1039 10.4953L13.9978 8.58199L15.8917 6.66866L15.0954 5.87263L14.2991 5.07661L12.4052 6.98994ZM7.67745 10.51C7.06048 10.9952 6.83115 11.4662 6.83115 12.2488C6.83115 12.9968 7.04551 13.4721 7.53921 13.8176C7.92844 14.0902 8.54827 14.3134 8.91679 14.3134C9.28532 14.3134 9.89846 13.9816 10.2794 13.5766C10.6603 13.1712 10.9719 12.4768 10.9719 12.0339C10.9719 11.5907 10.7209 11.0076 10.4145 10.7386C10.108 10.4695 9.55701 10.1581 9.1904 10.047C8.75626 9.91518 8.22848 10.0766 7.67745 10.51Z" fill="currentColor"/>
</svg>
