<svg width="16" height="22" viewBox="0 0 16 22" fill="none" xmlns="http://www.w3.org/2000/svg">
<path fill-rule="evenodd" clip-rule="evenodd" d="M0.341202 0.379813C0.033811 0.721832 0 1.73667 0 10.6269C0 19.9224 0.0218534 20.5141 0.377075 20.8378C0.711886 21.1431 1.51634 21.1815 7.56087 21.1815C13.8932 21.1815 14.3913 21.1551 14.7088 20.8017C15.0162 20.4597 15.05 19.4448 15.05 10.5546C15.05 1.25905 15.0281 0.667424 14.6729 0.34368C14.3381 0.0384174 13.5337 0 7.48913 0C1.15679 0 0.658695 0.026373 0.341202 0.379813ZM11.8196 4.18874L10.4216 5.60769L9.90847 5.09103C9.51655 4.69606 9.45243 4.51685 9.63695 4.33099C9.81652 4.15012 9.95011 4.14783 10.1583 4.32165C10.3781 4.50543 10.6756 4.31334 11.5452 3.42642C12.4206 2.53368 12.7115 2.34678 12.935 2.53347C13.1642 2.72494 12.9533 3.03788 11.8196 4.18874ZM8.6589 4.67239C8.6589 4.93715 8.13195 4.98388 5.15411 4.98388C2.17627 4.98388 1.64932 4.93715 1.64932 4.67239C1.64932 4.40762 2.17627 4.36089 5.15411 4.36089C8.13195 4.36089 8.6589 4.40762 8.6589 4.67239ZM13.0908 7.05946C13.1605 7.17305 12.5981 7.88387 11.8411 8.63893L10.4645 10.012L9.92991 9.47352C9.5215 9.06215 9.45243 8.87774 9.63695 8.69188C9.81672 8.5108 9.95011 8.50852 10.1585 8.68295C10.3785 8.86674 10.6558 8.69521 11.4481 7.88491C12.0033 7.31737 12.5715 6.85283 12.7107 6.85283C12.85 6.85283 13.0211 6.94587 13.0908 7.05946ZM8.6589 9.03328C8.6589 9.29805 8.13195 9.34477 5.15411 9.34477C2.17627 9.34477 1.64932 9.29805 1.64932 9.03328C1.64932 8.76851 2.17627 8.72179 5.15411 8.72179C8.13195 8.72179 8.6589 8.76851 8.6589 9.03328ZM13.0692 11.385C13.1271 11.4793 12.548 12.1827 11.7823 12.9479L10.3901 14.3394L9.89837 13.8122C9.52912 13.4162 9.46542 13.2256 9.64251 13.0472C9.81775 12.8707 9.95032 12.8698 10.1585 13.0438C10.3785 13.2276 10.6558 13.0561 11.4481 12.2458C12.0033 11.6783 12.5715 11.2137 12.7107 11.2137C12.85 11.2137 13.0114 11.2908 13.0692 11.385ZM8.6589 13.3653C8.6589 13.5856 7.93362 13.6805 5.36605 13.7964C3.5551 13.8782 1.97794 13.8857 1.86125 13.813C1.74477 13.7406 1.64932 13.5466 1.64932 13.3819C1.64932 13.1331 2.23998 13.0827 5.15411 13.0827C7.97279 13.0827 8.6589 13.1379 8.6589 13.3653ZM13.1034 15.8016C13.1811 15.9283 12.6315 16.6293 11.8598 17.3875L10.4773 18.7464L9.9363 18.2017C9.52294 17.7854 9.45243 17.5995 9.63695 17.4137C9.81672 17.2326 9.95011 17.2303 10.1585 17.4047C10.3785 17.5885 10.6558 17.417 11.4481 16.6067C12.0033 16.0392 12.5715 15.5746 12.7107 15.5746C12.85 15.5746 13.0267 15.6768 13.1034 15.8016ZM8.6589 17.7551C8.6589 18.0198 8.13195 18.0666 5.15411 18.0666C2.17627 18.0666 1.64932 18.0198 1.64932 17.7551C1.64932 17.4903 2.17627 17.4436 5.15411 17.4436C8.13195 17.4436 8.6589 17.4903 8.6589 17.7551Z" fill="currentColor"/>
</svg>
