<svg width="22" height="14" viewBox="0 0 22 14" fill="none" xmlns="http://www.w3.org/2000/svg">
<path fill-rule="evenodd" clip-rule="evenodd" d="M8.92057 0.401272C8.24829 0.610986 7.264 1.11413 6.73343 1.5187C6.20257 1.92356 5.47857 2.72356 5.12457 3.2967L4.48057 4.3387L5.16886 4.86584C5.54743 5.15556 7.14286 6.03156 8.71429 6.81241C10.2857 7.59327 12.8166 8.65527 14.3386 9.17299C15.8606 9.69041 17.1811 10.0381 17.2734 9.94584C17.366 9.85356 17.5863 9.08441 17.7631 8.2367C18.0314 6.95213 18.0043 6.41841 17.5997 5.03099C17.2446 3.81327 16.7797 3.03156 15.8691 2.12127C15.0083 1.26041 14.1594 0.738129 13.1174 0.4287C12.2886 0.1827 11.2803 -0.0101567 10.8766 0.000414694C10.4731 0.0109861 9.59286 0.191272 8.92057 0.401272ZM0.357143 1.72613C0.160857 1.92927 0 2.31699 0 2.58784C0 2.8587 0.331714 3.4747 0.737429 3.95641C1.14286 4.43841 2.53914 5.54127 3.84057 6.40699C5.14171 7.2727 7.29743 8.49241 8.63114 9.11756C9.96486 9.74241 12.3934 10.7007 14.028 11.2467C15.6626 11.7927 17.8471 12.3256 18.8826 12.4307C20.1143 12.5561 20.9783 12.5078 21.3826 12.2916C21.722 12.1098 22 11.7338 22 11.4558C22 11.1778 21.582 10.559 21.0714 10.0804C20.5609 9.60213 19.8249 8.99813 19.4363 8.7387C19.048 8.47927 18.63 8.26698 18.5077 8.26698C18.3857 8.26698 18.2857 8.5127 18.2857 8.81299C18.2857 9.11327 18.6877 9.69727 19.1789 10.1104C19.67 10.5238 20.0131 10.9207 19.9414 10.9921C19.8697 11.0638 19.0714 10.9858 18.1677 10.8187C17.2637 10.6518 15.5383 10.191 14.3334 9.79499C13.1286 9.39899 10.6 8.3167 8.71429 7.38956C6.82857 6.4627 4.54829 5.15584 3.64714 4.48556C2.74571 3.81527 2.00657 3.17299 2.00429 3.05813C2.002 2.94327 2.55143 2.92499 3.22543 3.01727C4.14829 3.14384 4.54371 3.07299 4.82771 2.73099C5.15343 2.3387 5.09343 2.23356 4.38829 1.96184C3.93886 1.7887 2.92857 1.58184 2.14286 1.50184C1.182 1.40441 0.597429 1.47784 0.357143 1.72613ZM4.168 8.19556C4.26629 8.62784 4.60171 9.52784 4.91314 10.1958C5.22486 10.8638 5.95057 11.8004 6.52571 12.2773C7.10086 12.7538 8.27857 13.3513 9.14286 13.605C10.4377 13.9853 10.9854 14.0098 12.2543 13.7447C13.1011 13.5678 14.1089 13.217 14.4931 12.9653C14.8777 12.7133 15.1183 12.4327 15.0274 12.3421C14.9369 12.2513 13.5623 11.6864 11.9731 11.087C10.384 10.4873 7.98971 9.4147 6.65257 8.70327C5.31543 7.99184 4.16886 7.40984 4.10514 7.40984C4.04143 7.40984 4.06943 7.76327 4.168 8.19556Z" fill="currentColor"/>
</svg>
