<svg width="21" height="20" viewBox="0 0 21 20" fill="none" xmlns="http://www.w3.org/2000/svg">
<path fill-rule="evenodd" clip-rule="evenodd" d="M4.46516 0.47118C3.90151 0.727247 3.18033 1.3019 2.86249 1.74801C2.52315 2.22464 2.23658 3.0621 2.16781 3.77779L2.05078 4.99611H9.99134H17.9319L17.8149 3.77779C17.7491 3.09161 17.4613 2.22689 17.1562 1.79877C16.8584 1.38042 16.1297 0.803267 15.537 0.516442C14.566 0.04632 14.0166 -0.00469321 9.97484 0.000308087C6.14284 0.00505932 5.34089 0.0735771 4.46516 0.47118ZM2.1143 6.09464C2.1143 6.28619 1.94551 6.50775 1.7392 6.58702C1.45138 6.6973 1.3641 7.17217 1.3641 8.6263C1.3641 10.38 1.31309 10.5653 0.682177 11.1082C0.15279 11.5633 0 11.9167 0 12.6861C0 13.4641 0.227809 13.9789 1.05727 15.0775C1.63868 15.8477 2.1148 16.7357 2.1153 17.051C2.1158 17.3663 2.34336 17.997 2.62093 18.4521C2.8985 18.9075 3.51316 19.4419 3.98728 19.6399C4.46116 19.838 5.24111 20 5.72048 20C6.19986 20 6.87328 19.8717 7.21737 19.7149C7.76077 19.4674 7.85254 19.2458 7.9168 18.027C7.98857 16.6679 8.01233 16.6256 8.6785 16.6711C9.05685 16.6971 9.36618 16.6126 9.36618 16.4836C9.36618 16.3546 9.45045 16.2488 9.55373 16.2485C9.65701 16.248 9.70427 17.092 9.65901 18.124C9.58824 19.7374 9.63475 20 9.99134 20C10.3479 20 10.3944 19.7374 10.3237 18.124C10.2784 17.092 10.3257 16.248 10.429 16.2485C10.5322 16.2488 10.6165 16.3546 10.6165 16.4836C10.6165 16.6126 10.9258 16.6971 11.3042 16.6711C11.9704 16.6256 11.9941 16.6679 12.0659 18.027C12.1301 19.2458 12.2219 19.4674 12.7653 19.7149C13.1094 19.8717 13.7828 20 14.2622 20C14.7416 20 15.5215 19.838 15.9954 19.6399C16.4695 19.4419 17.0842 18.9075 17.3618 18.4521C17.6393 17.997 17.8669 17.3721 17.8674 17.064C17.8679 16.7557 18.2742 15.9717 18.7704 15.3215C19.2665 14.6716 19.7776 13.8634 19.9062 13.5256C20.0345 13.1877 20.07 12.5946 19.9852 12.2075C19.9002 11.8206 19.5578 11.2895 19.2245 11.0272C18.6778 10.5971 18.6186 10.364 18.6186 8.6408C18.6186 7.17367 18.5316 6.69755 18.2435 6.58702C18.0372 6.50775 17.8684 6.28619 17.8684 6.09464C17.8684 5.80431 16.5575 5.7463 9.99134 5.7463C3.42514 5.7463 2.1143 5.80431 2.1143 6.09464ZM8.34692 7.89836C8.01358 8.25695 7.17811 8.87486 6.49043 9.27147C5.80276 9.66807 5.09782 9.99365 4.92378 9.99515C4.74998 9.9964 4.38464 9.63181 4.11207 9.18469C3.8395 8.73758 3.61619 8.11867 3.61569 7.80934C3.61469 7.26094 3.68221 7.24669 6.28388 7.24669H8.95332L8.34692 7.89836ZM16.368 7.62979C16.368 7.84059 16.2042 8.40474 16.0042 8.88361C15.8041 9.36249 15.472 9.81911 15.266 9.89813C15.0602 9.97715 14.3317 9.73709 13.6475 9.36449C12.9631 8.99214 12.0929 8.36323 11.7133 7.96713L11.0231 7.24669H13.6956C15.9291 7.24669 16.368 7.30971 16.368 7.62979ZM10.6165 11.7479C10.6165 12.1147 10.4497 12.248 9.99134 12.248C9.53298 12.248 9.36618 12.1147 9.36618 11.7479C9.36618 11.381 9.53298 11.2477 9.99134 11.2477C10.4497 11.2477 10.6165 11.381 10.6165 11.7479ZM8.61599 12.1312C8.61599 12.326 8.2784 12.6598 7.86579 12.8731C7.15911 13.2385 7.1156 13.2335 7.1156 12.7851C7.1156 12.5233 7.36891 12.139 7.67824 11.9312C7.98757 11.7236 8.32516 11.6038 8.42844 11.6653C8.53172 11.7271 8.61599 11.9367 8.61599 12.1312ZM12.2507 11.9016C12.5898 12.1237 12.8671 12.5206 12.8671 12.7834C12.8671 13.2337 12.8241 13.2387 12.1169 12.8731C11.6678 12.6408 11.3667 12.2872 11.3667 11.9914C11.3667 11.7199 11.427 11.4978 11.5005 11.4978C11.5743 11.4978 11.9118 11.6796 12.2507 11.9016ZM6.3654 13.2482C6.3654 13.3858 6.05582 13.4966 5.67772 13.4946C5.14183 13.4916 5.07282 13.437 5.36514 13.2482C5.57145 13.115 5.88103 13.0042 6.05282 13.0019C6.22487 12.9999 6.3654 13.1107 6.3654 13.2482ZM14.6175 13.2482C14.9099 13.437 14.8409 13.4916 14.305 13.4946C13.9266 13.4966 13.6173 13.3858 13.6173 13.2482C13.6173 13.1107 13.7581 12.9999 13.9299 13.0019C14.1019 13.0042 14.4112 13.115 14.6175 13.2482ZM6.10533 16.8622C6.27113 17.062 6.36915 17.4156 6.32364 17.6481C6.27788 17.8807 6.04332 18.195 5.80276 18.3466C5.48392 18.5471 5.24636 18.5471 4.92753 18.3466C4.68697 18.195 4.45241 17.8807 4.40664 17.6481C4.36113 17.4156 4.45916 17.062 4.62495 16.8622C4.79074 16.6624 5.12383 16.4991 5.36514 16.4991C5.60646 16.4991 5.93954 16.6624 6.10533 16.8622ZM15.3577 16.8622C15.5235 17.062 15.6216 17.4156 15.576 17.6481C15.5303 17.8807 15.296 18.195 15.0552 18.3466C14.7363 18.5471 14.4988 18.5471 14.1799 18.3466C13.9394 18.195 13.7048 17.8807 13.659 17.6481C13.6135 17.4156 13.7116 17.062 13.8774 16.8622C14.0431 16.6624 14.3762 16.4991 14.6175 16.4991C14.8589 16.4991 15.1919 16.6624 15.3577 16.8622ZM8.21738 17.0957C8.14411 17.2863 8.11961 17.9245 8.16262 18.5141C8.20563 19.1038 8.38168 19.6324 8.55347 19.6889C8.78053 19.7634 8.86605 19.3756 8.86605 18.2703C8.86605 17.3921 8.75702 16.7492 8.60824 16.7492C8.4662 16.7492 8.2904 16.9052 8.21738 17.0957ZM11.0571 17.0617C10.9949 17.2338 10.9716 17.8599 11.0051 18.4536C11.0389 19.0473 11.1264 19.5929 11.1999 19.6664C11.2734 19.7399 11.4535 19.7259 11.6 19.6352C11.7468 19.5446 11.8668 18.8582 11.8668 18.1098C11.8668 17.1135 11.7736 16.7492 11.5185 16.7492C11.3269 16.7492 11.1194 16.8899 11.0571 17.0617Z" fill="currentColor"/>
</svg>
